<?xml version="1.0" encoding="UTF-8"?>
<svg id="Capa_1" data-name="Capa 1" xmlns="http://www.w3.org/2000/svg" viewBox="0 0 650 650">
  <defs>
    <style>
      .cls-1 {
        fill: #fff;
      }

      .cls-2 {
        fill: #224c87;
      }
    </style>
  </defs>
  <rect class="cls-2" width="650" height="650" rx="81.43" ry="81.43"/>
  <g>
    <path class="cls-1" d="M110.02,432.89V135.68h74.1v169.37h-9.77c0-22.8,2.85-41.94,8.55-57.41,5.7-15.47,14.05-27.14,25.04-35.01,10.99-7.87,24.63-11.81,40.92-11.81h3.26c24.43,0,43.09,8.82,55.98,26.46,12.89,17.65,19.34,43.57,19.34,77.76v127.85h-74.1v-130.7c0-10.31-3.12-18.79-9.36-25.45-6.25-6.65-14.52-9.98-24.84-9.98s-18.73,3.33-25.24,9.98c-6.51,6.65-9.77,15.41-9.77,26.26v129.88h-74.1Z"/>
    <path class="cls-1" d="M465.88,514.32v-147.8l17.91-21.17c-.55,19-4.35,35.63-11.4,49.88-7.06,14.25-17.1,25.31-30.13,33.18-13.03,7.87-28.77,11.81-47.23,11.81-15.75,0-29.93-2.85-42.55-8.55-12.62-5.7-23.41-13.64-32.37-23.82-8.96-10.18-15.82-22.19-20.56-36.03-4.75-13.84-7.13-28.91-7.13-45.19v-9.77c0-16.29,2.51-31.41,7.53-45.4,5.02-13.98,12.21-26.19,21.58-36.64,9.36-10.45,20.49-18.59,33.39-24.43,12.89-5.83,27.21-8.75,42.95-8.75,18.18,0,33.93,4.01,47.23,12.01,13.3,8.01,23.61,19.61,30.94,34.81,7.33,15.2,11.26,33.66,11.81,55.37h-6.51v-95.68h58.63v306.18h-74.1ZM417.83,379.15c8.96,0,17.16-2.04,24.63-6.11,7.46-4.07,13.5-10.04,18.12-17.91,4.61-7.87,6.92-17.37,6.92-28.5v-13.84c0-10.85-2.38-19.95-7.12-27.28-4.75-7.33-10.86-12.96-18.32-16.9-7.47-3.93-15.54-5.9-24.23-5.9-9.77,0-18.53,2.51-26.26,7.53-7.74,5.03-13.84,11.95-18.32,20.76-4.48,8.82-6.72,19.07-6.72,30.74s2.24,21.78,6.72,30.33c4.48,8.55,10.59,15.2,18.32,19.95,7.74,4.75,16.49,7.13,26.26,7.13Z"/>
  </g>
</svg>