<svg id="Capa_1" data-name="Capa 1" xmlns="http://www.w3.org/2000/svg" viewBox="0 0 650 650">
  <defs>
    <style>
      .cls-1 {
        fill: #fff;
      }
      .cls-2 {
        fill: #224c87;
      }
    </style>
  </defs>
  <rect class="cls-2" x="-155.08" y="-112.85" width="965.76" height="1127.54"/>
  <g>
    <path class="cls-1" d="M48.29,461.01V119.22h85.21v194.77h-11.24c0-26.22,3.28-48.22,9.83-66.02,6.55-17.79,16.15-31.21,28.79-40.27,12.64-9.05,28.33-13.58,47.05-13.58h3.75c28.09,0,49.55,10.15,64.38,30.43,14.82,20.29,22.24,50.1,22.24,89.43v147.02h-85.21v-150.29c0-11.86-3.59-21.61-10.77-29.26-7.18-7.65-16.7-11.47-28.56-11.47s-21.54,3.83-29.03,11.47c-7.49,7.65-11.24,17.72-11.24,30.2v149.36H48.29Z"/>
    <path class="cls-1" d="M516.5,554.65v-169.96l20.6-24.35c-.63,21.85-5,40.97-13.11,57.36-8.12,16.39-19.67,29.11-34.65,38.16-14.98,9.05-33.09,13.58-54.31,13.58-18.11,0-34.41-3.28-48.93-9.83-14.51-6.55-26.92-15.69-37.22-27.39-10.3-11.71-18.19-25.52-23.64-41.44-5.46-15.92-8.19-33.24-8.19-51.97v-11.24c0-18.73,2.88-36.12,8.66-52.21,5.77-16.07,14.05-30.12,24.82-42.14,10.77-12.01,23.56-21.38,38.39-28.09,14.82-6.71,31.29-10.07,49.4-10.07,20.91,0,39.01,4.61,54.31,13.81,15.29,9.21,27.16,22.55,35.58,40.03,8.43,17.48,12.95,38.71,13.58,63.68h-7.49v-110.03h67.42v352.09h-85.21ZM461.25,399.21c10.3,0,19.74-2.34,28.33-7.02,8.58-4.68,15.52-11.54,20.84-20.6,5.3-9.05,7.96-19.97,7.96-32.77v-15.92c0-12.48-2.74-22.94-8.19-31.37-5.46-8.43-12.49-14.9-21.07-19.43-8.59-4.52-17.87-6.79-27.86-6.79-11.24,0-21.3,2.89-30.2,8.66-8.9,5.78-15.92,13.74-21.07,23.88-5.15,10.15-7.73,21.93-7.73,35.35s2.58,25.05,7.73,34.88,12.17,17.48,21.07,22.94c8.9,5.46,18.96,8.19,30.2,8.19Z"/>
  </g>
</svg>
