<?xml version="1.0" encoding="UTF-8"?>
<svg id="Capa_1" data-name="Capa 1" xmlns="http://www.w3.org/2000/svg" viewBox="0 0 2426.72 435.43">
  <defs>
    <style>
      .cls-1 {
        fill: #1d1d1b;
      }

      .cls-2 {
        fill: #fff;
      }

      .cls-3 {
        fill: #224c87;
      }
    </style>
  </defs>
  <rect class="cls-3" x="1637.77" y="0" width="788.96" height="435.43" rx="81.43" ry="81.43"/>
  <g>
    <path class="cls-1" d="M0,341.79V0h85.21v194.77h-11.24c0-26.22,3.28-48.23,9.83-66.02,6.55-17.79,16.15-31.21,28.79-40.27,12.64-9.05,28.33-13.58,47.05-13.58h3.75c28.09,0,49.55,10.15,64.38,30.43,14.82,20.29,22.24,50.1,22.24,89.43v147.02h-85.21v-150.29c0-11.86-3.59-21.61-10.77-29.26-7.18-7.65-16.7-11.47-28.56-11.47s-21.54,3.83-29.03,11.47c-7.49,7.65-11.24,17.72-11.24,30.2v149.36H0Z"/>
    <path class="cls-1" d="M412.49,351.16c-22.79,0-43.08-3.44-60.87-10.3-17.79-6.86-32.85-16.39-45.18-28.56-12.33-12.17-21.7-26.22-28.09-42.14-6.4-15.92-9.6-32.93-9.6-51.03v-11.24c0-18.73,3.35-36.21,10.07-52.44,6.71-16.23,16.31-30.43,28.79-42.61,12.48-12.17,27.62-21.69,45.42-28.56,17.79-6.86,37.61-10.3,59.46-10.3s42.06,3.44,59.7,10.3c17.63,6.87,32.69,16.39,45.18,28.56,12.48,12.17,22.08,26.38,28.79,42.61,6.71,16.23,10.07,33.71,10.07,52.44v11.24c0,18.11-3.2,35.12-9.6,51.03-6.4,15.92-15.77,29.97-28.09,42.14-12.33,12.17-27.39,21.7-45.18,28.56-17.79,6.86-38.09,10.3-60.87,10.3ZM412.49,279.99c13.11,0,23.95-2.81,32.54-8.43,8.58-5.62,15.06-13.5,19.43-23.64,4.37-10.14,6.56-21.61,6.56-34.41s-2.27-25.2-6.79-35.35c-4.53-10.14-11.16-18.18-19.9-24.11-8.74-5.93-19.36-8.9-31.84-8.9s-23.1,2.97-31.84,8.9c-8.74,5.93-15.38,13.97-19.9,24.11-4.53,10.15-6.79,21.93-6.79,35.35s2.18,24.27,6.55,34.41c4.37,10.15,10.92,18.03,19.66,23.64,8.74,5.62,19.5,8.43,32.31,8.43Z"/>
    <path class="cls-1" d="M579.63,341.79V83.34h67.42v112.37h-.94c0-36.21,7.56-64.61,22.71-85.21,15.14-20.6,36.91-30.9,65.31-30.9h10.3v73.04h-19.66c-19.04,0-33.79,5.15-44.25,15.45-10.46,10.3-15.69,25.13-15.69,44.48v129.23h-85.21Z"/>
    <path class="cls-1" d="M875.07,351.16c-21.85,0-41.2-3.75-58.06-11.24-16.86-7.49-31.06-17.63-42.61-30.43-11.55-12.8-20.37-27.16-26.45-43.08-6.09-15.92-9.13-32.31-9.13-49.16v-9.36c0-17.48,3.04-34.25,9.13-50.33,6.09-16.07,14.82-30.35,26.22-42.84,11.39-12.48,25.36-22.39,41.9-29.73,16.54-7.33,35.27-11,56.18-11,27.78,0,51.34,6.25,70.7,18.73,19.35,12.49,34.18,28.96,44.48,49.4,10.3,20.45,15.45,42.69,15.45,66.72v27.16h-228.48v-45.88h179.32l-29.5,20.6c0-14.67-1.95-27.08-5.85-37.22-3.91-10.14-9.68-17.87-17.32-23.18-7.65-5.3-17.25-7.96-28.79-7.96s-21,2.58-29.26,7.73c-8.27,5.15-14.6,12.96-18.96,23.41-4.38,10.46-6.56,23.64-6.56,39.56,0,14.36,2.03,26.77,6.09,37.22,4.05,10.46,10.3,18.49,18.73,24.11,8.43,5.62,19.35,8.43,32.77,8.43,11.86,0,21.61-2.03,29.26-6.09,7.65-4.05,13.03-9.52,16.15-16.39h77.72c-3.75,17.48-11.16,33.09-22.24,46.82-11.08,13.74-25.13,24.51-42.14,32.31-17.02,7.8-36.6,11.71-58.76,11.71Z"/>
    <path class="cls-1" d="M1208.9,435.43v-169.96l20.6-24.35c-.63,21.85-5,40.97-13.11,57.36-8.12,16.39-19.66,29.11-34.65,38.16-14.98,9.05-33.09,13.58-54.31,13.58-18.11,0-34.41-3.28-48.93-9.83-14.51-6.55-26.92-15.68-37.22-27.39-10.3-11.71-18.19-25.52-23.64-41.44-5.46-15.92-8.19-33.24-8.19-51.97v-11.24c0-18.73,2.88-36.12,8.66-52.21,5.77-16.07,14.05-30.12,24.81-42.14,10.77-12.01,23.56-21.38,38.39-28.09,14.82-6.71,31.29-10.07,49.4-10.07,20.91,0,39.01,4.61,54.31,13.81,15.29,9.21,27.16,22.55,35.58,40.03,8.43,17.48,12.95,38.71,13.58,63.68h-7.49v-110.03h67.42v352.09h-85.21ZM1153.65,279.99c10.3,0,19.74-2.34,28.33-7.02,8.58-4.68,15.52-11.54,20.83-20.6,5.3-9.05,7.96-19.97,7.96-32.77v-15.92c0-12.48-2.74-22.94-8.19-31.37-5.46-8.43-12.49-14.9-21.07-19.43-8.59-4.52-17.87-6.79-27.86-6.79-11.24,0-21.3,2.89-30.2,8.66-8.9,5.78-15.92,13.74-21.07,23.88-5.15,10.15-7.73,21.93-7.73,35.35s2.58,25.05,7.73,34.88c5.15,9.83,12.17,17.48,21.07,22.94,8.9,5.46,18.96,8.19,30.2,8.19Z"/>
    <path class="cls-1" d="M1406.94,348.35c-18.11,0-34.18-3.28-48.23-9.83-14.05-6.56-25.05-15.99-33.01-28.33-7.96-12.33-11.94-27.08-11.94-44.25,0-19.35,5.15-35.04,15.45-47.05,10.3-12.01,24.5-20.84,42.61-26.45,18.1-5.62,38.86-8.43,62.27-8.43h50.1v44.01h-50.1c-11.55,0-20.45,2.89-26.69,8.66-6.25,5.78-9.36,13.5-9.36,23.18s3.12,16.94,9.36,22.71c6.24,5.78,15.14,8.66,26.69,8.66,7.49,0,14.12-1.32,19.9-3.98,5.77-2.65,10.53-7.26,14.28-13.81,3.75-6.55,5.93-15.6,6.55-27.16l19.67,18.73c-1.57,17.79-5.85,32.85-12.88,45.18-7.02,12.33-16.7,21.77-29.03,28.33-12.33,6.55-27.55,9.83-45.65,9.83ZM1488.88,341.79v-75.85h-14.05v-81c0-11.86-2.74-20.67-8.19-26.45-5.46-5.77-14.44-8.66-26.92-8.66-5.93,0-14.68.16-26.22.47-11.55.31-23.72.78-36.52,1.4-12.8.63-24.51,1.25-35.12,1.87v-71.17c7.49-.62,16.39-1.24,26.69-1.87,10.3-.62,20.99-1.09,32.07-1.4,11.08-.31,21.3-.47,30.67-.47,26.53,0,49.08,3.91,67.66,11.71,18.57,7.81,32.77,19.51,42.61,35.12,9.83,15.61,14.75,35.43,14.75,59.46v156.85h-67.42Z"/>
  </g>
  <g>
    <path class="cls-2" d="M1715.02,291.12v-52.66h52.12v52.66h-52.12Z"/>
    <path class="cls-2" d="M1868.39,296.43c-12.77,0-23.85-2.09-33.24-6.25-9.4-4.16-17.24-9.79-23.54-16.89-6.3-7.09-10.99-15.16-14.09-24.2-3.1-9.04-4.65-18.44-4.65-28.19v-5.32c0-10.28,1.64-20.03,4.92-29.25,3.28-9.22,8.11-17.37,14.49-24.47,6.38-7.09,14.27-12.67,23.67-16.75,9.4-4.08,20.21-6.12,32.45-6.12,13.47,0,25.35,2.66,35.64,7.98,10.28,5.32,18.48,12.63,24.6,21.94s9.53,19.99,10.24,32.05h-47.34c-.53-5.85-2.71-10.81-6.52-14.89-3.81-4.08-9.35-6.12-16.62-6.12-6.21,0-11.3,1.6-15.29,4.79-3.99,3.19-6.96,7.62-8.91,13.3-1.95,5.68-2.93,12.41-2.93,20.21,0,7.27.84,13.74,2.53,19.41,1.68,5.68,4.52,10.06,8.51,13.16,3.99,3.1,9.35,4.65,16.09,4.65,4.96,0,9.13-.89,12.5-2.66,3.37-1.77,6.03-4.3,7.98-7.58,1.95-3.28,3.19-7.13,3.72-11.57h47.34c-.71,12.41-4.21,23.32-10.5,32.71-6.3,9.4-14.67,16.75-25.13,22.07-10.46,5.32-22.43,7.98-35.9,7.98Z"/>
    <path class="cls-2" d="M2024.23,296.43c-12.94,0-24.47-1.95-34.57-5.85s-18.66-9.31-25.66-16.22c-7.01-6.91-12.32-14.89-15.96-23.93-3.64-9.04-5.45-18.7-5.45-28.99v-6.38c0-10.64,1.9-20.56,5.72-29.78,3.81-9.22,9.26-17.29,16.35-24.2,7.09-6.91,15.69-12.32,25.8-16.22,10.11-3.9,21.36-5.85,33.77-5.85s23.89,1.95,33.91,5.85c10.01,3.9,18.57,9.31,25.66,16.22,7.09,6.91,12.54,14.98,16.35,24.2,3.81,9.22,5.72,19.15,5.72,29.78v6.38c0,10.28-1.82,19.95-5.45,28.99-3.64,9.04-8.95,17.02-15.96,23.93-7.01,6.91-15.56,12.32-25.66,16.22-10.11,3.9-21.63,5.85-34.57,5.85ZM2024.23,256.01c7.45,0,13.6-1.6,18.48-4.79,4.87-3.19,8.55-7.67,11.04-13.43,2.48-5.76,3.72-12.27,3.72-19.55s-1.29-14.32-3.86-20.08c-2.57-5.76-6.34-10.33-11.3-13.7-4.97-3.37-11-5.05-18.08-5.05s-13.12,1.69-18.08,5.05c-4.97,3.37-8.73,7.94-11.3,13.7-2.57,5.76-3.86,12.46-3.86,20.08s1.24,13.79,3.72,19.55c2.48,5.76,6.2,10.24,11.17,13.43,4.96,3.19,11.08,4.79,18.35,4.79Z"/>
    <path class="cls-2" d="M2119.17,291.12v-146.8h38.3v63.29h-2.13c0-15.25,1.9-27.88,5.72-37.9,3.81-10.01,9.44-17.55,16.89-22.6,7.45-5.05,16.58-7.58,27.39-7.58h2.13c10.99,0,20.17,2.53,27.52,7.58,7.35,5.05,12.94,12.59,16.75,22.6,3.81,10.02,5.72,22.65,5.72,37.9h-11.17c0-15.25,1.9-27.88,5.72-37.9,3.81-10.01,9.44-17.55,16.89-22.6,7.45-5.05,16.58-7.58,27.39-7.58h2.13c10.99,0,20.25,2.53,27.79,7.58,7.53,5.05,13.3,12.59,17.29,22.6,3.99,10.02,5.98,22.65,5.98,37.9v83.5h-48.4v-84.83c0-6.74-1.82-12.37-5.45-16.89-3.64-4.52-8.82-6.78-15.56-6.78s-12.01,2.26-15.82,6.78c-3.81,4.52-5.72,10.33-5.72,17.42v84.3h-48.4v-84.83c0-6.74-1.82-12.37-5.45-16.89-3.64-4.52-8.82-6.78-15.56-6.78s-12.01,2.26-15.82,6.78c-3.81,4.52-5.72,10.33-5.72,17.42v84.3h-48.4Z"/>
  </g>
</svg>