<?xml version="1.0" encoding="UTF-8"?>
<svg id="Capa_1" data-name="Capa 1" xmlns="http://www.w3.org/2000/svg" viewBox="0 0 1683.84 435.43">
  <defs>
    <style>
      .cls-1 {
        fill: #fff;
      }
    </style>
  </defs>
  <g>
    <path class="cls-1" d="M0,341.79V0h85.21v194.77h-11.24c0-26.22,3.28-48.23,9.83-66.02,6.55-17.79,16.15-31.21,28.79-40.27,12.64-9.05,28.33-13.58,47.05-13.58h3.75c28.09,0,49.55,10.15,64.38,30.43,14.82,20.29,22.24,50.1,22.24,89.43v147.02h-85.21v-150.29c0-11.86-3.59-21.61-10.77-29.26-7.18-7.65-16.7-11.47-28.56-11.47s-21.54,3.83-29.03,11.47c-7.49,7.65-11.24,17.72-11.24,30.2v149.36H0Z"/>
    <path class="cls-1" d="M412.49,351.16c-22.79,0-43.08-3.44-60.87-10.3-17.79-6.86-32.85-16.39-45.18-28.56-12.33-12.17-21.7-26.22-28.09-42.14-6.4-15.92-9.6-32.93-9.6-51.03v-11.24c0-18.73,3.35-36.21,10.07-52.44,6.71-16.23,16.31-30.43,28.79-42.61,12.48-12.17,27.62-21.69,45.42-28.56,17.79-6.86,37.61-10.3,59.46-10.3s42.06,3.44,59.7,10.3c17.63,6.87,32.69,16.39,45.18,28.56,12.48,12.17,22.08,26.38,28.79,42.61,6.71,16.23,10.07,33.71,10.07,52.44v11.24c0,18.11-3.2,35.12-9.6,51.03-6.4,15.92-15.77,29.97-28.09,42.14-12.33,12.17-27.39,21.7-45.18,28.56-17.79,6.86-38.09,10.3-60.87,10.3ZM412.49,279.99c13.11,0,23.95-2.81,32.54-8.43,8.58-5.62,15.06-13.5,19.43-23.64,4.37-10.14,6.56-21.61,6.56-34.41s-2.27-25.2-6.79-35.35c-4.53-10.14-11.16-18.18-19.9-24.11-8.74-5.93-19.36-8.9-31.84-8.9s-23.1,2.97-31.84,8.9c-8.74,5.93-15.38,13.97-19.9,24.11-4.53,10.15-6.79,21.93-6.79,35.35s2.18,24.27,6.55,34.41c4.37,10.15,10.92,18.03,19.66,23.64,8.74,5.62,19.5,8.43,32.31,8.43Z"/>
    <path class="cls-1" d="M579.63,341.79V83.34h67.42v112.37h-.94c0-36.21,7.56-64.61,22.71-85.21,15.14-20.6,36.91-30.9,65.31-30.9h10.3v73.04h-19.66c-19.04,0-33.79,5.15-44.25,15.45-10.46,10.3-15.69,25.13-15.69,44.48v129.23h-85.21Z"/>
    <path class="cls-1" d="M875.07,351.16c-21.85,0-41.2-3.75-58.06-11.24-16.86-7.49-31.06-17.63-42.61-30.43-11.55-12.8-20.37-27.16-26.45-43.08-6.09-15.92-9.13-32.31-9.13-49.16v-9.36c0-17.48,3.04-34.25,9.13-50.33,6.09-16.07,14.82-30.35,26.22-42.84,11.39-12.48,25.36-22.39,41.9-29.73,16.54-7.33,35.27-11,56.18-11,27.78,0,51.34,6.25,70.7,18.73,19.35,12.49,34.18,28.96,44.48,49.4,10.3,20.45,15.45,42.69,15.45,66.72v27.16h-228.48v-45.88h179.32l-29.5,20.6c0-14.67-1.95-27.08-5.85-37.22-3.91-10.14-9.68-17.87-17.32-23.18-7.65-5.3-17.25-7.96-28.79-7.96s-21,2.58-29.26,7.73c-8.27,5.15-14.6,12.96-18.96,23.41-4.38,10.46-6.56,23.64-6.56,39.56,0,14.36,2.03,26.77,6.09,37.22,4.05,10.46,10.3,18.49,18.73,24.11,8.43,5.62,19.35,8.43,32.77,8.43,11.86,0,21.61-2.03,29.26-6.09,7.65-4.05,13.03-9.52,16.15-16.39h77.72c-3.75,17.48-11.16,33.09-22.24,46.82-11.08,13.74-25.13,24.51-42.14,32.31-17.02,7.8-36.6,11.71-58.76,11.71Z"/>
    <path class="cls-1" d="M1208.9,435.43v-169.96l20.6-24.35c-.63,21.85-5,40.97-13.11,57.36-8.12,16.39-19.66,29.11-34.65,38.16-14.98,9.05-33.09,13.58-54.31,13.58-18.11,0-34.41-3.28-48.93-9.83-14.51-6.55-26.92-15.68-37.22-27.39-10.3-11.71-18.19-25.52-23.64-41.44-5.46-15.92-8.19-33.24-8.19-51.97v-11.24c0-18.73,2.88-36.12,8.66-52.21,5.77-16.07,14.05-30.12,24.81-42.14,10.77-12.01,23.56-21.38,38.39-28.09,14.82-6.71,31.29-10.07,49.4-10.07,20.91,0,39.01,4.61,54.31,13.81,15.29,9.21,27.16,22.55,35.58,40.03,8.43,17.48,12.95,38.71,13.58,63.68h-7.49v-110.03h67.42v352.09h-85.21ZM1153.65,279.99c10.3,0,19.74-2.34,28.33-7.02,8.58-4.68,15.52-11.54,20.83-20.6,5.3-9.05,7.96-19.97,7.96-32.77v-15.92c0-12.48-2.74-22.94-8.19-31.37-5.46-8.43-12.49-14.9-21.07-19.43-8.59-4.52-17.87-6.79-27.86-6.79-11.24,0-21.3,2.89-30.2,8.66-8.9,5.78-15.92,13.74-21.07,23.88-5.15,10.15-7.73,21.93-7.73,35.35s2.58,25.05,7.73,34.88c5.15,9.83,12.17,17.48,21.07,22.94,8.9,5.46,18.96,8.19,30.2,8.19Z"/>
    <path class="cls-1" d="M1406.94,348.35c-18.11,0-34.18-3.28-48.23-9.83-14.05-6.56-25.05-15.99-33.01-28.33-7.96-12.33-11.94-27.08-11.94-44.25,0-19.35,5.15-35.04,15.45-47.05,10.3-12.01,24.5-20.84,42.61-26.45,18.1-5.62,38.86-8.43,62.27-8.43h50.1v44.01h-50.1c-11.55,0-20.45,2.89-26.69,8.66-6.25,5.78-9.36,13.5-9.36,23.18s3.12,16.94,9.36,22.71c6.24,5.78,15.14,8.66,26.69,8.66,7.49,0,14.12-1.32,19.9-3.98,5.77-2.65,10.53-7.26,14.28-13.81,3.75-6.55,5.93-15.6,6.55-27.16l19.67,18.73c-1.57,17.79-5.85,32.85-12.88,45.18-7.02,12.33-16.7,21.77-29.03,28.33-12.33,6.55-27.55,9.83-45.65,9.83ZM1488.88,341.79v-75.85h-14.05v-81c0-11.86-2.74-20.67-8.19-26.45-5.46-5.77-14.44-8.66-26.92-8.66-5.93,0-14.68.16-26.22.47-11.55.31-23.72.78-36.52,1.4-12.8.63-24.51,1.25-35.12,1.87v-71.17c7.49-.62,16.39-1.24,26.69-1.87,10.3-.62,20.99-1.09,32.07-1.4,11.08-.31,21.3-.47,30.67-.47,26.53,0,49.08,3.91,67.66,11.71,18.57,7.81,32.77,19.51,42.61,35.12,9.83,15.61,14.75,35.43,14.75,59.46v156.85h-67.42Z"/>
  </g>
  <path class="cls-1" d="M1580.55,291.72v-1.05c0-28.52,23.12-51.65,51.65-51.65h0c28.52,0,51.65,23.12,51.65,51.65v1.05c0,28.52-23.12,51.65-51.65,51.65h0c-28.52,0-51.65-23.12-51.65-51.65Z"/>
</svg>