<?xml version="1.0" encoding="UTF-8"?>
<svg id="Capa_1" data-name="Capa 1" xmlns="http://www.w3.org/2000/svg" viewBox="0 0 2500 2500">
  <defs>
    <style>
      .cls-1 {
        fill: #fff;
      }

      .cls-2 {
        fill: #224c87;
      }
    </style>
  </defs>
  <rect class="cls-2" x="0" y="2.27" width="2500" height="2500" rx="81.43" ry="81.43"/>
  <g>
    <path class="cls-1" d="M407.48,1984.89V508.3h368.13v841.45h-48.54c0-113.27,14.16-208.34,42.48-285.2,28.32-76.86,69.78-134.83,124.4-173.95,54.61-39.1,122.38-58.66,203.28-58.66h16.18c121.36,0,214.06,43.84,278.13,131.48,64.03,87.67,96.08,216.43,96.08,386.34v635.13h-368.14v-649.29c0-51.23-15.52-93.36-46.52-126.42-31.04-33.03-72.16-49.56-123.39-49.56s-93.04,16.53-125.41,49.56c-32.36,33.06-48.54,76.55-48.54,130.46v645.25h-368.13Z"/>
    <path class="cls-1" d="M1646.29,1768.58v-4.55c0-123.22,99.89-223.12,223.12-223.12h0c123.22,0,223.12,99.89,223.12,223.12v4.55c0,123.22-99.89,223.12-223.12,223.12h0c-123.22,0-223.12-99.89-223.12-223.12Z"/>
  </g>
</svg>